Coordinates
version=1
nRows=24
nColumns=24
inDegrees=yes

Units are S.I. units (second, meters, Newtons, ...)
Angles are in degrees.

endheader
time	pelvis_tilt	pelvis_list	pelvis_rotation	pelvis_tx	pelvis_ty	pelvis_tz	hip_flexion_r	hip_adduction_r	hip_rotation_r	knee_angle_r	ankle_angle_r	subtalar_angle_r	mtp_angle_r	hip_flexion_l	hip_adduction_l	hip_rotation_l	knee_angle_l	ankle_angle_l	subtalar_angle_l	mtp_angle_l	lumbar_extension	lumbar_bending	lumbar_rotation
      4.49500000	     15.65618587	     -0.41410240	      5.08690450	      0.26287594	      0.96773475	      0.02556857	    -15.72998471	      2.98418108	     -0.85321901	     -1.23980650	     13.03488938	      0.86175589	     25.53628254	    -10.36837863	    -10.94600715	    -10.71449840	    -50.77600663	      3.29207276	      7.46162595	     40.85526910	    -23.28243581	      5.24333249	     -2.64786028
      4.50000000	     15.50026867	     -0.31461554	      5.06330652	      0.26726989	      0.96773056	      0.02589579	    -15.94378223	      2.91006212	     -0.87487012	     -1.07382857	     13.20138298	      0.84784026	     25.49687829	     -9.55398510	    -10.88725110	    -10.82460773	    -50.83362155	      4.10916472	      7.26511214	     40.80632640	    -23.18938501	      5.12920586	     -2.59859608
      4.50500000	     15.42532014	     -0.18661100	      5.01788504	      0.27171261	      0.96782095	      0.02620552	    -16.27010085	      2.80188982	     -0.89656009	     -0.86628255	     13.34252051	      0.92572955	     25.48930127	     -8.87917601	    -10.78752115	    -10.97802147	    -50.75848624	      4.89360858	      7.14385164	     40.79923327	    -23.18388407	      4.98513649	     -2.53992131
      4.51000000	     15.19860006	     -0.11965105	      5.01259787	      0.27608014	      0.96764206	      0.02646068	    -16.35136548	      2.75620777	     -1.05812257	     -0.80875708	     13.62271940	      1.11778421	     25.42905381	     -7.99376875	    -10.74356707	    -11.08274918	    -50.70143780	      5.70765646	      7.21525028	     40.63534260	    -23.01171448	      4.90474773	     -2.48633422
      4.51500000	     15.06986001	     -0.01401198	      5.01668231	      0.28046064	      0.96758181	      0.02658143	    -16.55280090	      2.66741917	     -1.29613711	     -0.74721197	     14.05010441	      1.62197785	     24.28305722	     -7.24716984	    -10.63096735	    -11.17582222	    -50.54686221	      6.57993439	      7.26383489	     38.22839846	    -22.94748005	      4.80575099	     -2.46094056
      4.52000000	     14.90975557	      0.05768580	      4.92446920	      0.28481886	      0.96746116	      0.02691013	    -16.72226713	      2.59445873	     -1.27593855	     -0.64138599	     14.22657974	      1.68108633	     24.25031297	     -6.51836616	    -10.55020752	    -11.40184895	    -50.27408613	      7.30711161	      7.42784335	     38.20961345	    -22.85832803	      4.69521225	     -2.29252070
      4.52500000	     14.73702233	      0.11903409	      4.86790175	      0.28913291	      0.96727553	      0.02713670	    -16.85899003	      2.53501531	     -1.33586340	     -0.57272591	     14.46437737	      1.84021106	     24.20605805	     -5.76332633	    -10.46376933	    -11.58824729	    -49.95921040	      7.99770932	      7.50355824	     38.12996671	    -22.75737524	      4.61036855	     -2.15903869
      4.53000000	     14.58762181	      0.20193557	      4.81636516	      0.29349281	      0.96713578	      0.02726262	    -17.00102708	      2.44635948	     -1.54830728	     -0.56861114	     14.85322664	      2.37097858	     23.07822362	     -5.07044812	    -10.32365191	    -11.75378166	    -49.53801942	      8.71967672	      7.62825090	     36.35821417	    -22.67514770	      4.51422613	     -2.01968551
      4.53500000	     14.46740531	      0.25610815	      4.75466757	      0.29780708	      0.96697860	      0.02744728	    -17.21167288	      2.39382377	     -1.53699240	     -0.46076329	     15.04376292	      2.42330541	     23.07992744	     -4.42491297	    -10.21159995	    -11.94738312	    -49.03278714	      9.33895349	      7.64878884	     36.37380308	    -22.63154058	      4.44039578	     -1.87773977
      4.54000000	     14.27443789	      0.27857868	      4.64963417	      0.30209244	      0.96667955	      0.02769108	    -17.27527737	      2.35390240	     -1.57144422	     -0.48108294	     15.36977588	      2.64628707	     23.06183246	     -3.70945621	    -10.12957983	    -12.21133331	    -48.49261369	      9.90188324	      7.81981644	     36.32810515	    -22.51113245	      4.37727466	     -1.64734242
      4.54500000	     14.11930469	      0.31593878	      4.56445091	      0.30637872	      0.96643112	      0.02782841	    -17.39109609	      2.29971956	     -1.63437202	     -0.48474354	     15.66236194	      2.89991182	     23.00905629	     -3.06156110	    -10.00376900	    -12.43845054	    -47.84689358	     10.43292011	      7.88491356	     36.23347029	    -22.43199781	      4.31734035	     -1.43972732
      4.55000000	     13.97974903	      0.35495185	      4.46906379	      0.31066741	      0.96618996	      0.02797002	    -17.51757638	      2.24121822	     -1.70808402	     -0.50048553	     15.96478382	      3.18470440	     22.92107688	     -2.45924860	     -9.86180933	    -12.67310432	    -47.10842039	     10.92868170	      7.95460885	     36.09566772	    -22.37033446	      4.24919576	     -1.21411225
      4.55500000	     13.85495804	      0.39592533	      4.37161957	      0.31495002	      0.96595320	      0.02808323	    -17.66334989	      2.17834397	     -1.75406524	     -0.50832183	     16.25730756	      3.42730111	     22.83324484	     -1.89728057	     -9.70268127	    -12.91242529	    -46.28593623	     11.38792121	      8.01039154	     35.97063378	    -22.32567937	      4.18204857	     -0.99192282
      4.56000000	     13.76133483	      0.46932166	      4.29343425	      0.31924781	      0.96577136	      0.02807125	    -17.82219368	      2.07822834	     -1.96855500	     -0.58590336	     16.73308002	      4.08162810	     20.84410408	     -1.39916143	     -9.47488331	    -13.10011235	    -45.36935667	     11.88638551	      8.08874449	     33.96095290	    -22.31201514	      4.09711215	     -0.78109999
      4.56500000	     13.64517312	      0.47154596	      4.17934382	      0.32346929	      0.96550043	      0.02820324	    -17.94187322	      2.05226742	     -1.96993375	     -0.64946279	     17.02151474	      4.22878142	     20.83135950	     -0.88354609	     -9.34098772	    -13.35822599	    -44.40779541	     12.33653385	      8.27765619	     33.95686266	    -22.28289835	      4.06316789	     -0.50492622
      4.57000000	     13.53802836	      0.50978596	      4.06349444	      0.32771245	      0.96523541	      0.02827149	    -18.08854496	      1.98093545	     -1.97779553	     -0.68494768	     17.32887619	      4.43386844	     20.81582567	     -0.41154922	     -9.14302705	    -13.60796731	    -43.34579800	     12.69162030	      8.39385247	     33.93375564	    -22.26173881	      3.99560913	     -0.24418007
      4.57500000	     13.49315313	      0.56630944	      3.95973468	      0.33198717	      0.96507135	      0.02826587	    -18.28358902	      1.89249227	     -2.14276531	     -0.77314182	     17.66143568	      4.91016255	     20.65428743	     -0.05025813	     -8.90626769	    -13.83690727	    -42.16658330	     13.04736089	      8.52785445	     33.81649023	    -22.30491289	      3.92090182	     -0.00013684
      4.58000000	     13.38428848	      0.60780289	      3.83140894	      0.33615135	      0.96479932	      0.02829821	    -18.40253110	      1.80788679	     -2.10659656	     -0.85056660	     17.96450294	      5.05303600	     20.59330299	      0.37430545	     -8.67032229	    -14.06511276	    -40.93651789	     13.31634886	      8.71911961	     33.78143248	    -22.29211561	      3.84862336	      0.28587262
      4.58500000	     13.35104869	      0.65954345	      3.69188361	      0.34039389	      0.96463969	      0.02833011	    -18.59072294	      1.71297870	     -2.20090033	     -0.96791451	     18.27357172	      5.42012725	     20.43512066	      0.65964303	     -8.42118063	    -14.33965712	    -39.58849329	     13.59538684	      8.97331278	     33.70550615	    -22.35262728	      3.76302224	      0.57304631
      4.59000000	     13.30066650	      0.72481313	      3.56370977	      0.34461036	      0.96443977	      0.02829179	    -18.76820801	      1.60007464	     -2.26306804	     -1.06781743	     18.60420005	      5.74238250	     20.23402364	      0.94555999	     -8.13475121	    -14.57242020	    -38.16938007	     13.84196628	      9.26591086	     33.63111576	    -22.39645487	      3.67155508	      0.83892670
      4.59500000	     13.27290190	      0.80138173	      3.44874768	      0.34881864	      0.96425568	      0.02821445	    -18.97263030	      1.47618228	     -2.33167255	     -1.16781870	     18.94618353	      6.11805091	     19.90623446	      1.17641966	     -7.82216021	    -14.77796038	    -36.66051725	     14.08240208	      9.62242792	     33.54302725	    -22.46592269	      3.57225841	      1.04757629
      4.60000000	     13.23924108	      0.88696537	      3.33449661	      0.35304685	      0.96405737	      0.02810463	    -19.17403526	      1.34164598	     -2.41938320	     -1.26314556	     19.31570420	      6.47130687	     19.46462288	      1.38382760	     -7.48823314	    -14.97835165	    -35.07554116	     14.26053398	     10.06311433	     33.46690184	    -22.52481382	      3.46404966	      1.29913514
      4.60500000	     13.17089280	      0.92515690	      3.17109859	      0.35719119	      0.96380640	      0.02809770	    -19.28984090	      1.24054141	     -2.38904933	     -1.43093481	     19.63512337	      6.67953135	     19.27170548	      1.60808286	     -7.20825129	    -15.25044553	    -33.44111040	     14.38100614	     10.57730688	     33.45926273	    -22.55574783	      3.38092177	      1.60399204
      4.61000000	     13.15063136	      1.00099678	      3.02400137	      0.36140135	      0.96360746	      0.02799197	    -19.48289485	      1.10048002	     -2.42356594	     -1.56295875	     19.96911227	      6.98061623	     19.06027665	      1.73241210	     -6.87105263	    -15.50140294	    -31.70178398	     14.48549742	     11.18055888	     33.47205699	    -22.63234674	      3.27377765	      1.85454528
